<?xml version="1.0" encoding="utf-8"?>
<!-- Generator: Adobe Illustrator 25.1.0, SVG Export Plug-In . SVG Version: 6.00 Build 0)  -->
<svg version="1.1" xmlns="http://www.w3.org/2000/svg" xmlns:xlink="http://www.w3.org/1999/xlink" x="0px" y="0px"
	 viewBox="0 0 120.9 63.5" style="enable-background:new 0 0 120.9 63.5;" xml:space="preserve">
<style type="text/css">
	.st0{fill:#F9F8F9;}
	.st1{fill:#1F1E21;}
	.st2{fill:#29272B;}
	.st3{fill:#312F33;}
	.st4{fill:#615F64;}
	.st5{fill:#8B888D;}
	.st6{fill:#3D3C41;}
	.st7{fill:#49474D;}
	.st8{fill:#504E53;}
	.st9{fill:#636166;}
	.st10{fill:#C7C5C8;}
	.st11{fill:#5A575C;}
	.st12{fill:#67646A;}
	.st13{fill:#F7F7F8;}
	.st14{fill:#434147;}
	.st15{fill:#2C2B31;}
	.st16{fill:#B6B3B7;}
	.st17{fill:#3A383E;}
	.st18{fill:#29292E;}
	.st19{fill:#BBB9BD;}
	.st20{fill:#807E83;}
	.st21{fill:#F9F9F9;}
	.st22{fill:#2F2D32;}
	.st23{fill:#F1F0F1;}
	.st24{fill:#EEEDEE;}
	.st25{fill:#08090C;}
	.st26{fill:#C5C3C6;}
	.st27{fill:#FFFFFF;}
	.st28{fill:#DBDADC;}
	.st29{fill:#C3C1C4;}
	.st30{fill:#19191E;}
</style>
<g id="Calque_2">
</g>
<g id="Calque_1">
	<g id="D07KvQ.tif">
		<g>
			<path d="M15.7,31.5c-3.6-0.3-6.1-2.1-7.5-5.4c-0.3-0.7-0.1-1.6-0.7-2.3c0-0.6,0-1.2,0-1.7c0.3-0.4,0.1-0.8,0.1-1.2
				c0.4-3.1,1.6-5.7,3.2-8.4c2.1-3.3,4.4-6.4,7.4-8.8c1.6-1.3,3.4-2.4,5.5-2.9c0.5-0.1,1.1-0.2,1.6,0l0,0.1c0.4,0.1,0.8,0.3,1.3,0.2
				c2.1,0.5,3.5,2.9,3,5.3c-0.5,2.2-1.6,4.1-3.4,5.4c-0.4,0.3-0.9,0.4-1.2,0.2c-0.5-0.2-0.4-0.8-0.3-1.2c0.2-1.4,1.1-2.5,1.4-3.8
				c0.1-0.4,0.2-0.7,0.2-1.1c0.2-1.5-0.5-2-1.9-1.7c-1.4,0.3-2.5,1-3.6,1.8c-1.2,0.8-2.3,1.8-3.3,2.8c-1,1.1-2,2.3-2.7,3.7
				c-1.2,2.1-2.8,4-3.5,6.3c-0.7,2.3-1.3,4.5-0.3,6.9c0.9,2,2.6,2.8,4.7,2.8c3.4,0,6.5-1.1,9.5-2.4c0.3-0.1,0.7-0.3,1-0.4
				c2.1-0.7,2-0.7,2.3-2.9c0.3-2.6,1.6-4.7,3.8-6.3c1.4-1,2.8-1.7,4.5-2c0.8-0.2,1.5-0.1,2.3,0.2c1.9,0.7,2.3,1.8,1.8,3.7
				c-0.4,1.3-1.3,2.3-2.2,3.3c-1.5,1.6-3.3,3-5.1,4.3c1.7,1.1,3.6,0.9,5.4,1.2c0.2,0,0.5,0.1,0.8,0c0.8-0.1,1.9,0.1,1.9-1.4
				c0-0.9,0.5-1.8,1.4-2.4c0.6,0.9,0.2,1.7-0.1,2.5c-0.2,0.4-0.8,0.7-0.3,1.3c0.5,0.6,0.9,1.4,1.9,1.1c0.4-0.1,1-0.4,1.1,0.4
				c-1.4,0.5-2.7,0.3-3.7-0.8c-0.3-0.2-0.5-0.2-0.7,0.1c-2.9,1.5-6.1,1.9-9,0.5c-1.9-0.9-3.2-0.3-4.6,0.3c-2.8,1.3-5.8,2-8.9,2.6
				C17.6,31.6,16.6,31.3,15.7,31.5z"/>
			<path class="st0" d="M7.5,20.8c0.1,0,0.1,0,0.2,0c0,0.4,0.3,0.9-0.2,1.2C7.5,21.7,7.5,21.2,7.5,20.8z"/>
			<path d="M45.3,28.6c-0.1-0.2-0.3-0.5-0.4-0.4c-1.2,0.8-2,0.1-2.6-0.8c-0.4-0.5-1.2-1,0-1.7c0.7-0.4,0.6-1.5,0.5-2.4
				c1.2-1.4,2.5-2.6,4.1-3.5c0.9-0.5,1.6-1.3,2.6-1.5c0.8-0.2,1.2,0.2,1.5,0.7c0.4,0.6,0,1-0.6,1.4c-2.3,1.6-4.3,3.5-6.2,5.7
				c1.1,0.3,1.9-0.4,2.8-0.4l0.1,0.1l-0.1-0.1c1-0.6,2-1.3,3.1-1.8c2.1-1,3.9-2.3,5.4-4.1c1-1.2,1.8-1.2,3.1-0.4
				c0.1,0.3-0.1,0.7,0.2,1.1c0.2,0.9-0.5,1.2-1.1,1.7c-0.9,0.7-2,1.3-2.3,2.6c-0.1,0.3-0.8,0.4-0.4,0.9c0.4,0.5,1,0.5,1.6,0.5
				c1.1-0.1,2.2-0.3,3.2-0.8c1.9-0.9,4.1-1.3,5.5-3.1c0.2-0.2,0.2-0.4,0.3-0.6c0.5-2.1,1.7-3.8,3.1-5.5c1.5-1.8,3.2-3.4,5.1-4.8
				c1.3-0.9,2.6-1.6,4.2-1.6c1.6,0,2.2,0.6,2.1,2.3c0,1.1-0.4,2-1.1,2.9c-1.8,2.2-3.9,4.1-6.1,5.9c-1.6,1.2-3,2.6-4.8,3.6
				c-0.5,0.3-0.5,0.9-0.3,1.3c0.3,0.6,0.9,0.8,1.5,0.7c0.8-0.1,1.6-0.2,2.3-0.5c3.4-1,6.3-2.9,9.2-4.7c0.2-0.1,0.3-0.2,0.3-0.5
				c0.5-2.8,2.3-5,4.1-7.1c1.4-1.7,3.3-2.7,5.3-3.7c1.1-0.5,2.2-0.4,3.2,0.5c0.2,0.3,0.3,0.5,0.5,0.8c0.3,2.6-1.6,3.8-3.1,5.3
				c-2.2,2-4.5,3.9-7,5.6c-0.6,0.4-0.8,0.8-0.6,1.4c0.2,0.7,0.9,0.6,1.4,0.5c3.1-0.6,6.1-1.6,8.7-3.6c0.4-0.2,0.6-0.6,0.7-1
				c0.2-0.2,0.4-0.5,0.6-0.6c0.7-0.2,1.4-0.9,2.2-0.3c0.9,0.6,1.3,1.5,0.7,2.5c-0.3,0-0.6,0.2-0.8,0.5c-0.5,0.7-1,1.4-1.6,2.2
				c0.9,0.3,1.7,0.1,2.5-0.1c1.1-0.3,2.1-0.6,3.2-0.9c0.8-0.2,0.9-0.9,1.1-1.5c0.6-1.8,2.2-2.7,3.7-3.5c0.6-0.3,1.2-0.6,1.9-0.8
				c1.2-0.3,2.4-0.2,3.2,0.8c0.8,1,0.4,2,0,3c-0.6,1.2-1.8,1.8-2.8,2.5c-0.2,0.1-0.6,0-0.5,0.4c0.1,0.3,0.3,0.4,0.6,0.5
				c2.3,0.7,4.6,0.2,6.9-0.1c0,0.8-0.5,1.4-1,1.9c-1.6,1.5-7.7,2.2-9.6,0.7c-1.2-0.9-2.1-0.5-3.3-0.1c-2.2,0.7-4.3,1.1-6.6,0.8
				c-1.3-0.2-2.1-0.9-2.6-2.1c-0.2-0.5-0.3-0.5-0.8-0.2c-2.6,1.4-5.3,2-8.2,1.7c-0.9-0.1-1.7-0.7-2.1-1.6c-0.3-0.7-0.7-0.7-1.1-0.1
				c-0.2,0.3-0.7,0.2-0.8,0.5c-2.5,1.1-4.9,2.5-7.6,3.2c-1.6,0.4-3.2,0.5-4.7-0.2c-0.4-0.2-0.8-0.4-1-0.7c-0.7-1.6-1.6-1.3-2.9-0.7
				c-2.1,1-4.2,1.8-6.6,1.7c-2.7-0.1-3.6-0.7-4.3-3c-1.5,0.7-2.9,1.3-4.4,2c-0.2,0.1-0.4,0-0.5,0.2C46.7,28.3,46,28.6,45.3,28.6z"/>
			<path d="M57.1,40.5c-5.2,0.2-10.4,0.5-15.6,0.7c-2,0.1-4.1,0.1-6.1,0.2c-0.2,0-0.4,0.1-0.6-0.1c-0.2-0.3-0.1,0.2-0.2,0.1
				c-1.7,0-3.4,0-5.1-0.1c-0.3,0-0.6-0.1-0.8-0.2c-0.3-0.1-0.6-0.3-0.5-0.6c0-0.3,0.3-0.3,0.5-0.4c1.3-0.7,2.7-0.7,4.1-1
				c1.8-0.3,3.8-0.3,5.6-0.6c2.6-0.4,5.2-0.6,7.9-0.8c4.1-0.3,8.3-0.6,12.4-0.4c0.3-0.2,0.7,0.1,1.1-0.2c3.6,0,7.3-0.1,10.9,0
				c5,0.2,10,0.2,14.9,0.7c2.7,0.3,5.5,0.5,8.2,1c0.4,0.3,0.9-0.1,1.3,0.2c0.1,0,0.2,0,0.2,0c0.4,0.3,0.8,0,1.2,0.2
				c0.2,0.1,0.5,0.2,0.4,0.5c-0.1,0.4-0.4,0.3-0.7,0.2c-6.2,0-12.4,0-18.7,0c-4.8,0-9.5,0.1-14.3,0.3c-1.6,0-3.2,0.3-4.8,0
				C58,40.6,57.5,40.2,57.1,40.5z"/>
			<path class="st1" d="M61.6,10.4c0.6,0.4,1,0.8,0.7,1.7c-0.2,0.6-0.7,0.6-1.2,0.5c-0.7-0.6-1.5-1.2-0.4-2.1
				C61,10.1,61.3,10.3,61.6,10.4z"/>
			<path class="st2" d="M96.1,40.1c0.4-0.1,0.8-0.3,0.1-0.6c-0.3-0.2-0.9,0.2-1-0.4c1-0.1,1.8,0.3,2.8,0.4c0.1,0.3,0.8-0.1,0.7,0.5
				C97.9,40.3,97,40.2,96.1,40.1z"/>
			<path class="st3" d="M101.8,12.3c0.4,0.4,0.3,0.8,0,1.1c-0.4,0.4-0.9,0.3-1.3,0c0-0.4-0.2-0.8,0-1.1
				C101,11.7,101.4,12.1,101.8,12.3z"/>
			<path class="st4" d="M60.9,10.4c-1.1,0.8-0.1,1.5,0.2,2.2c-1.4-0.6-1.5-1.1-0.6-2.3C60.7,10.2,60.8,10.2,60.9,10.4z"/>
			<path class="st5" d="M15.7,31.5c0.9-0.4,1.8-0.3,2.8-0.2C17.6,31.7,16.6,31.6,15.7,31.5z"/>
			<path class="st6" d="M26.5,1.1c-0.3,0.4-0.5,0.4-1.3-0.2C25.7,0.8,26.1,0.8,26.5,1.1z"/>
			<path class="st7" d="M101.8,12.3c-0.4,0.1-0.8-0.4-1.2,0c-0.1,0.1-0.2,0.1-0.3,0C100.7,11.4,101.2,11.7,101.8,12.3z"/>
			<path class="st8" d="M94.5,19.4c0.2,0.7,0,1-0.7,1C93.9,19.9,94.1,19.6,94.5,19.4z"/>
			<path class="st9" d="M100.2,12.3c0.1,0,0.2,0,0.3,0c0.2,0.4,0.3,0.7-0.1,1C100.1,13.1,99.7,12.8,100.2,12.3z"/>
			<path class="st10" d="M94.4,11.1c-0.5-0.1-1.1-0.1-0.5-0.8C94.5,10.4,94.5,10.7,94.4,11.1z"/>
			<path class="st11" d="M98.7,40c-0.2-0.3-0.6-0.1-0.7-0.5c0.3,0,0.6,0,1,0.1c0.1,0,0.3,0.2,0.3,0.3C99.1,40.1,98.9,40.1,98.7,40z"
				/>
			<path class="st12" d="M58.8,20.3c-0.5-0.3-0.5-0.6-0.2-1.1C59.1,19.6,58.8,20,58.8,20.3z"/>
			<path class="st13" d="M79.3,25.5c-0.3-1.1,0.8,0,0.8-0.5C80,25.4,79.7,25.5,79.3,25.5z"/>
			<path class="st2" d="M95,39c-0.4-0.2-0.9,0.5-1.3-0.2C94.1,38.8,94.6,38.7,95,39z"/>
			<path class="st14" d="M57.1,40.5c0.3-0.6,0.9-0.1,1.3-0.2C58,40.7,57.5,40.4,57.1,40.5z"/>
			<path class="st15" d="M34.5,41.3c0.3-1.3,0.6,0.6,0.9,0C35.1,41.6,34.8,41.6,34.5,41.3z"/>
			<path class="st16" d="M97.2,21.5C97,20.8,97.5,21,97.9,21C97.8,21.4,97.4,21.4,97.2,21.5z"/>
			<path class="st17" d="M40.9,27.9c0.1-0.4,0.4-0.5,0.7-0.5c0.2,0,0.1,0.2,0,0.4C41.3,27.8,41.1,27.9,40.9,27.9z"/>
			<path class="st18" d="M47.3,28c-0.1-0.2-0.3-0.4-0.1-0.5c0.1-0.1,0.4,0.2,0.6,0.3C47.7,28.1,47.5,28,47.3,28z"/>
			<path class="st19" d="M59.7,37.1c-0.2,0.7-0.7-0.1-1.1,0.2C58.9,36.9,59.3,37,59.7,37.1z"/>
			<path class="st20" d="M60.9,10.4c-0.1,0-0.2-0.1-0.4-0.1c0.4-0.4,0.7-0.2,1.1,0.1C61.4,10.7,61.2,10.3,60.9,10.4z"/>
			<path class="st21" d="M31.7,22.4c0.2-2,3.3-5,5.4-4.8c-0.4,1.1-1.3,1.9-2.1,2.6c-0.8,0.8-1.8,1.4-2.7,2.1
				C32.1,22.5,31.9,22.5,31.7,22.4z"/>
			<path class="st22" d="M31.7,22.4c0.2,0,0.4,0,0.5-0.1c0,0.5-0.8,0.4-0.7,0.9C31.3,22.9,30.8,22.5,31.7,22.4z"/>
			<path class="st23" d="M74.5,15.2c-1.4,1.2-2.3,2.9-4.2,3.4c0.9-1,1.7-2.2,2.9-3c0.4-0.1,0.4-0.6,0.8-0.7c0-0.3,0.3-0.2,0.5-0.3
				C74.6,14.7,74.5,14.9,74.5,15.2z"/>
			<path class="st24" d="M87.4,15.6c0.5-0.6,1.2-1.1,1.9-1.4c-0.3,0.8-1.1,1.1-1.6,1.7C87.5,15.9,87.4,15.8,87.4,15.6z"/>
			<path class="st25" d="M90.9,13.1c-0.1,0.3-0.3,0.5-0.6,0.4c-0.2,0-0.4-0.2-0.3-0.4c0.1-0.3,0.4-0.4,0.7-0.4
				C90.9,12.7,90.9,12.9,90.9,13.1z"/>
			<path class="st26" d="M87.4,15.6c0.1,0.1,0.2,0.2,0.3,0.3c-0.2,0.2-0.4,0.7-0.8,0.6C86.7,15.9,87.1,15.8,87.4,15.6z"/>
			<path class="st27" d="M47.1,25.6c0.4-0.1,0.8,0,0.8,0.5c0,0.1-0.1,0.2-0.2,0.2C47.2,26.3,47,26,47.1,25.6
				C47.1,25.6,47.1,25.6,47.1,25.6z"/>
			<path class="st28" d="M74.5,15.2c0-0.2,0-0.4-0.1-0.6c0.1-0.2,0.3-0.2,0.5-0.2c0.3,0,0.4,0,0.3,0.3C74.9,14.8,74.7,15,74.5,15.2z
				"/>
			<path class="st29" d="M75.2,14.6c-0.1-0.1-0.2-0.2-0.3-0.3c0.3-0.1,0.4-0.5,0.9-0.4C75.6,14.2,75.4,14.4,75.2,14.6z"/>
			<path class="st28" d="M73.9,14.9c-0.2,0.3-0.3,0.7-0.8,0.7C73.3,15.3,73.5,14.9,73.9,14.9z"/>
			<path class="st30" d="M85.5,38.6c-0.1,0.1-0.2,0.2-0.4,0.3c-0.1,0-0.2-0.2-0.1-0.2c0.1-0.1,0.3-0.2,0.4-0.2
				C85.5,38.4,85.5,38.5,85.5,38.6z"/>
		</g>
	</g>
	<g>
		<path d="M1.9,58.5v3.5H1.2v-8.5h2.5c0.8,0,1.3,0.2,1.8,0.7s0.7,1.1,0.7,1.9c0,0.8-0.2,1.4-0.6,1.9s-1,0.7-1.8,0.7H1.9z M1.9,57.8
			h1.8c0.6,0,1-0.2,1.3-0.5s0.5-0.8,0.5-1.4S5.3,54.9,5,54.5S4.3,54,3.7,54H1.9V57.8z"/>
		<path d="M13.2,59.5H10l-0.7,2.4H8.6l2.7-8.5h0.6l2.7,8.5h-0.7L13.2,59.5z M10.2,58.9H13l-1.4-4.6L10.2,58.9z"/>
		<path d="M19.9,58l2.1-4.6h0.8l-2.6,5.3v3.2h-0.7v-3.2L17,53.4h0.8L19.9,58z"/>
		<path d="M30.3,59.8c0-0.5-0.1-0.9-0.4-1.1s-0.8-0.5-1.5-0.8s-1.3-0.5-1.6-0.8c-0.5-0.4-0.7-0.9-0.7-1.6c0-0.7,0.2-1.2,0.7-1.6
			s1-0.6,1.7-0.6c0.7,0,1.3,0.2,1.8,0.7s0.7,1.1,0.7,1.8h-0.7c0-0.6-0.2-1-0.5-1.4s-0.8-0.5-1.3-0.5c-0.5,0-1,0.1-1.3,0.4
			s-0.5,0.7-0.5,1.1c0,0.4,0.1,0.8,0.4,1.1s0.8,0.5,1.4,0.7s1.1,0.4,1.5,0.7s0.6,0.5,0.7,0.8s0.2,0.7,0.2,1.1c0,0.7-0.2,1.2-0.7,1.6
			s-1,0.6-1.8,0.6c-0.5,0-1-0.1-1.4-0.3s-0.7-0.5-1-0.9s-0.3-0.8-0.3-1.4h0.7c0,0.6,0.2,1.1,0.5,1.4s0.9,0.5,1.5,0.5
			c0.5,0,1-0.1,1.3-0.4S30.3,60.3,30.3,59.8z"/>
		<path d="M38.8,59.5h-3.2l-0.7,2.4h-0.7l2.7-8.5h0.6l2.7,8.5h-0.7L38.8,59.5z M35.8,58.9h2.8l-1.4-4.6L35.8,58.9z"/>
		<path d="M49,60.9c-0.3,0.4-0.6,0.6-1.1,0.8S47,62,46.5,62c-0.9,0-1.6-0.3-2.1-0.9s-0.8-1.4-0.8-2.4v-2.1c0-1.1,0.2-1.9,0.7-2.5
			s1.2-0.9,2-0.9c0.8,0,1.4,0.2,1.8,0.7S49,55,49,55.8h-0.7c-0.1-0.7-0.3-1.1-0.6-1.4s-0.8-0.5-1.3-0.5c-0.7,0-1.2,0.2-1.6,0.7
			s-0.5,1.1-0.5,2v2c0,0.9,0.2,1.6,0.6,2.1s0.9,0.7,1.6,0.7c0.7,0,1.4-0.2,1.8-0.7v-2.2h-1.9v-0.6H49V60.9z"/>
		<path d="M57.3,57.8H54v3.5h3.8v0.6h-4.5v-8.5h4.4V54H54v3.2h3.3V57.8z"/>
		<path d="M65.7,59.8c0-0.5-0.1-0.9-0.4-1.1s-0.8-0.5-1.5-0.8s-1.3-0.5-1.6-0.8c-0.5-0.4-0.7-0.9-0.7-1.6c0-0.7,0.2-1.2,0.7-1.6
			s1-0.6,1.7-0.6c0.7,0,1.3,0.2,1.8,0.7s0.7,1.1,0.7,1.8h-0.7c0-0.6-0.2-1-0.5-1.4s-0.8-0.5-1.3-0.5c-0.5,0-1,0.1-1.3,0.4
			s-0.5,0.7-0.5,1.1c0,0.4,0.1,0.8,0.4,1.1s0.8,0.5,1.4,0.7s1.1,0.4,1.5,0.7s0.6,0.5,0.7,0.8s0.2,0.7,0.2,1.1c0,0.7-0.2,1.2-0.7,1.6
			s-1,0.6-1.8,0.6c-0.5,0-1-0.1-1.4-0.3s-0.7-0.5-1-0.9s-0.3-0.8-0.3-1.4h0.7c0,0.6,0.2,1.1,0.5,1.4s0.9,0.5,1.5,0.5
			c0.5,0,1-0.1,1.3-0.4S65.7,60.3,65.7,59.8z"/>
		<path d="M79.3,59.5h-3.2l-0.7,2.4h-0.7l2.7-8.5H78l2.7,8.5H80L79.3,59.5z M78.1,52.7l-0.6,0l-1.3-1.6H77L78.1,52.7z M76.3,58.9
			h2.8l-1.4-4.6L76.3,58.9z"/>
		<path d="M91.7,60.9L91.7,60.9L91.7,60.9l2.3-7.5h0.7L92,61.9h-0.6l-2.7-8.5h0.7L91.7,60.9z"/>
		<path d="M102.4,57.8H99v3.5h3.8v0.6h-4.5v-8.5h4.4V54H99v3.2h3.3V57.8z M101.2,51h0.8l-1.4,1.6l-0.6,0L101.2,51z"/>
		<path d="M107.4,61.3h3.5v0.6h-4.2v-8.5h0.7V61.3z"/>
		<path d="M119.6,58.6c0,1.1-0.2,2-0.7,2.6s-1.2,0.9-2,0.9c-0.9,0-1.5-0.3-2-0.9s-0.7-1.4-0.7-2.5v-1.9c0-1.1,0.2-2,0.7-2.6
			s1.2-0.9,2-0.9c0.9,0,1.6,0.3,2,0.9s0.7,1.5,0.7,2.6V58.6z M118.9,56.7c0-0.9-0.2-1.6-0.5-2.1s-0.9-0.7-1.6-0.7
			c-0.7,0-1.2,0.2-1.5,0.7s-0.6,1.1-0.6,2.1v1.9c0,0.9,0.2,1.6,0.6,2.1s0.9,0.7,1.5,0.7c0.7,0,1.2-0.2,1.5-0.7s0.5-1.2,0.5-2.1V56.7
			z"/>
	</g>
</g>
</svg>
