<?xml version="1.0" encoding="utf-8"?>
<!-- Generator: Adobe Illustrator 25.1.0, SVG Export Plug-In . SVG Version: 6.00 Build 0)  -->
<svg version="1.1" id="Capa_1" xmlns="http://www.w3.org/2000/svg" xmlns:xlink="http://www.w3.org/1999/xlink" x="0px" y="0px"
	 viewBox="0 0 201.4 201.4" style="enable-background:new 0 0 201.4 201.4;" xml:space="preserve">
<style type="text/css">
	.st0{fill:#FAAC8A;}
</style>
<g>
	<g>
		<g>
			<path class="st0" d="M129.4,24.9C127.4,10.7,115,0,100.7,0c-9.2,0-18,4.5-23.4,11.9c-1.1,1.5-0.8,3.7,0.7,4.8
				c1.5,1.1,3.7,0.8,4.8-0.7c4.2-5.7,10.9-9.1,17.9-9.1c11,0,20.4,8.2,22,19c0.2,1.7,1.7,2.9,3.4,2.9c0.2,0,0.3,0,0.5,0
				C128.4,28.5,129.7,26.8,129.4,24.9z"/>
		</g>
	</g>
	<g>
		<g>
			<path class="st0" d="M178.7,63.1L168.5,46c-0.6-1-1.7-1.7-2.9-1.7h-9.8c-1.9,0-3.4,1.5-3.4,3.4s1.5,3.4,3.4,3.4h7.9l6.1,10.2
				H31.6l6.1-10.2h3.6c1.9,0,3.4-1.5,3.4-3.4s-1.5-3.4-3.4-3.4h-5.5c-1.2,0-2.3,0.6-2.9,1.7L22.7,63.1c-0.6,1.1-0.6,2.4,0,3.4
				s1.7,1.7,3,1.7h150.2c1.2,0,2.4-0.7,3-1.7S179.3,64.2,178.7,63.1z"/>
		</g>
	</g>
	<g>
		<g>
			<path class="st0" d="M161.7,31.6c-0.5-0.8-1.2-1.3-2.1-1.5L113,19.2c-0.9-0.2-1.8-0.1-2.6,0.4c-0.8,0.5-1.3,1.2-1.5,2.1l-3.5,15
				c-0.4,1.8,0.7,3.7,2.5,4.1c1.8,0.4,3.7-0.7,4.1-2.5l2.7-11.7l39.9,9.3l-6.3,26.8c-0.4,1.8,0.7,3.7,2.5,4.1
				c0.3,0.1,0.5,0.1,0.8,0.1c1.6,0,3-1.1,3.3-2.6l7-30.1C162.3,33.3,162.2,32.4,161.7,31.6z"/>
		</g>
	</g>
	<g>
		<g>
			<path class="st0" d="M102.5,39.7l-3.1-26.3c-0.1-0.9-0.6-1.7-1.3-2.3c-0.7-0.6-1.6-0.8-2.5-0.7l-57.1,6.7c-1.9,0.2-3.2,1.9-3,3.8
				l5.2,43.9c0.2,1.7,1.7,3,3.4,3c0.1,0,0.3,0,0.4,0c1.9-0.2,3.2-1.9,3-3.8l-4.8-40.5L93,17.6l2.7,22.9c0.2,1.9,1.9,3.2,3.8,3
				C101.4,43.3,102.7,41.6,102.5,39.7z"/>
		</g>
	</g>
	<g>
		<g>
			<path class="st0" d="M129.5,63.6l-6.8-28.2c-0.2-0.9-0.8-1.6-1.5-2.1c-0.8-0.5-1.7-0.6-2.6-0.4l-55,13.2c-1.8,0.4-3,2.3-2.5,4.1
				l3.4,14.1c0.4,1.8,2.3,3,4.1,2.5c1.8-0.4,3-2.3,2.5-4.1l-2.6-10.8l48.3-11.6l6,24.9c0.4,1.6,1.8,2.6,3.3,2.6c0.3,0,0.5,0,0.8-0.1
				C128.8,67.2,129.9,65.4,129.5,63.6z"/>
		</g>
	</g>
	<g>
		<g>
			<path class="st0" d="M179.2,64.7c-0.1-1.8-1.6-3.2-3.4-3.2H25.6c-1.8,0-3.3,1.4-3.4,3.2l-6.8,133.1c0,0.9,0.3,1.8,0.9,2.5
				c0.6,0.7,1.5,1.1,2.5,1.1h163.8c0.9,0,1.8-0.4,2.5-1.1c0.6-0.7,1-1.6,0.9-2.5L179.2,64.7z M22.4,194.6l6.5-126.3h143.7l6.5,126.3
				H22.4z"/>
		</g>
	</g>
	<g>
		<g>
			<path class="st0" d="M126.3,75.1c-5.6,0-10.2,4.6-10.2,10.2c0,5.6,4.6,10.2,10.2,10.2s10.2-4.6,10.2-10.2
				C136.5,79.7,131.9,75.1,126.3,75.1z M126.3,88.7c-1.9,0-3.4-1.5-3.4-3.4s1.5-3.4,3.4-3.4c1.9,0,3.4,1.5,3.4,3.4
				S128.2,88.7,126.3,88.7z"/>
		</g>
	</g>
	<g>
		<g>
			<path class="st0" d="M75.1,75.1c-5.6,0-10.2,4.6-10.2,10.2c0,5.6,4.6,10.2,10.2,10.2c5.6,0,10.2-4.6,10.2-10.2
				C85.3,79.7,80.7,75.1,75.1,75.1z M75.1,88.7c-1.9,0-3.4-1.5-3.4-3.4s1.5-3.4,3.4-3.4s3.4,1.5,3.4,3.4S77,88.7,75.1,88.7z"/>
		</g>
	</g>
	<g>
		<g>
			<path class="st0" d="M126.3,85.3H126c-1.9,0-3.4,1.5-3.4,3.4c0,0.5,0.1,0.9,0.3,1.3v17.5c0,12.2-10,22.2-22.2,22.2
				s-22.2-10-22.2-22.2V88.7c0-1.9-1.5-3.4-3.4-3.4s-3.4,1.5-3.4,3.4v18.8c0,16,13,29,29,29s29-13,29-29V88.7
				C129.7,86.9,128.2,85.3,126.3,85.3z"/>
		</g>
	</g>
</g>
</svg>
